<svg xmlns="http://www.w3.org/2000/svg" xmlns:xlink="http://www.w3.org/1999/xlink" viewBox="0 0 512 512">
	<radialGradient id="gradient_c" cx="165.5" cy="178.5" r="208.0028" gradientUnits="userSpaceOnUse">
		<stop  offset="0" style="stop-color:#CED3D8"/>
		<stop  offset="1" style="stop-color:#7F8B99"/>
	</radialGradient>
	
	<path fill="url(#gradient_c)" d="M465.07,352.902c0,7.74-1.62,14.59-4.88,20.5c-3.36,6.07-8.46,11.15-15.36,15.15
		c-55.67,32.13-111.4,64.159-167.05,96.319c-15.01,8.67-29.55,8.36-44.45-0.439c-22.15-13.08-133.1-76.69-166.16-95.86
		c-6.9-4-12-9.08-15.36-15.15c-3.26-5.909-4.88-12.77-4.88-20.5v-0.43c0.02-64.45,0-128.89,0.02-193.34
		c0-1.55,0.06-3.061,0.19-4.53c1.16-13.53,7.76-24.069,20.05-31.2c33.05-19.159,143.99-82.779,166.15-95.859
		c14.89-8.79,29.43-9.11,44.44-0.44c55.64,32.16,111.37,64.19,167.03,96.32c6.75,3.91,11.78,8.85,15.13,14.75
		c3.42,6,5.11,12.99,5.11,20.899C465.07,223.712,465.07,352.902,465.07,352.902z"/>
	<path fill="#FFFFFF" d="M299.213,226.547l65.072,0.459c0-27.112-27.444-93.51-106.126-93.51c-50.13,0-117.524,31.87-117.524,123.5
		c0,91.629,66.065,121.509,117.524,121.509c83.331,0,103.247-57.663,103.247-90.248l-62.081-3.55c0,0,1.661,37.69-41.498,37.69
		c-39.838,0-46.486-48.802-46.486-65.401c0-25.23,8.972-65.733,46.486-65.733C295.343,191.263,299.213,226.547,299.213,226.547"/>
</svg>
