<?xml version="1.0" encoding="utf-8"?>
<!-- Generator: Adobe Illustrator 21.0.2, SVG Export Plug-In . SVG Version: 6.00 Build 0)  -->
<svg version="1.1" id="Layer_1" xmlns="http://www.w3.org/2000/svg" xmlns:xlink="http://www.w3.org/1999/xlink" x="0px" y="0px"
	 viewBox="0 0 48 48" style="enable-background:new 0 0 48 48;" xml:space="preserve">
<style type="text/css">
	.st0{fill:#283593;}
	.st1{fill:#5C6BC0;}
	.st2{fill:#FFFFFF;}
	.st3{fill:#3949AB;}
</style>
<path class="st0" d="M43,14.6v18.8c0,0.1,0,0.2,0,0.3c-0.1,0.7-0.5,1.3-1.1,1.6l-16.8,9.4c-0.7,0.4-1.5,0.4-2.2,0L6.1,35.3
	c-0.5-0.3-0.8-0.7-1-1.1c0,0.1,0.1,0.2,0.2,0.3l6.4-3.7l6.1-3.5L30,20.3l6.1-3.5l6.4-3.7h0c0,0,0.1,0.1,0.1,0.1
	c0.1,0.1,0.2,0.3,0.2,0.4c0,0.1,0,0.1,0.1,0.2c0,0,0,0.1,0,0.1C43,14.2,43,14.4,43,14.6z"/>
<path class="st1" d="M42.5,13.2L42.5,13.2L36,16.9L30,20.3l-12.2,6.9l-6.1,3.5l-6.4,3.7c-0.1-0.1-0.1-0.2-0.2-0.3c0,0,0-0.1,0-0.1
	c0,0,0-0.1,0-0.1c0,0,0,0,0-0.1c0-0.1,0-0.2,0-0.3c0-0.1,0-0.2,0-0.3V14.5c0-0.1,0-0.1,0-0.2c0.1-0.7,0.5-1.3,1.1-1.6
	c3.3-1.9,13.4-7.5,16.8-9.4C23.1,3.1,23.4,3,23.7,3c0.5-0.1,1,0,1.4,0.3c0.1,0.1,0.2,0.1,0.3,0.2c0.2,0.1,0.5,0.3,0.8,0.4h0
	c0.4,0.2,0.8,0.5,1.3,0.7c4.4,2.4,11.6,6.5,14.4,8C42.1,12.8,42.3,12.9,42.5,13.2C42.5,13.2,42.5,13.2,42.5,13.2z"/>
<path class="st2" d="M30,27.5c-1.2,2.1-3.5,3.5-6,3.5c-2.7,0-5-1.5-6.2-3.7c-0.5-1-0.8-2.1-0.8-3.3c0-3.9,3.1-7,7-7
	c2.5,0,4.7,1.3,6,3.3l0,0l6.1-3.5v0c-2.4-4.1-6.9-6.9-12-6.9c-7.7,0-14,6.3-14,14c0,2.4,0.6,4.7,1.7,6.7c2.4,4.3,7,7.3,12.3,7.3
	c5.2,0,9.8-2.8,12.2-7.1L30,27.5z"/>
<path class="st3" d="M43,33.4c0,0.4-0.1,0.8-0.3,1.1l-6.5-3.6L30,27.5L23.6,24l6.4-3.7l6.1-3.5v0l6.4-3.7C43,13.7,43,14.4,43,15
	C43,18.8,43,29.6,43,33.4z"/>
</svg>
