<svg xmlns="http://www.w3.org/2000/svg" xmlns:xlink="http://www.w3.org/1999/xlink" viewBox="0 0 512 512">
			<path fill="#2C2255" d="M152.362,315.564H81.665c9.362,32.112,26.731,60.896,52.161,86.324
				c40.542,40.552,89.291,60.793,146.299,60.793c11.397,0,22.439-0.85,33.161-2.466c42.942-6.481,80.536-25.894,112.746-58.327
				c25.595-25.42,43.088-54.212,52.52-86.324h-28.689h-41.952H152.362z"/>
			<path fill="#F7941E" d="M61.484,256.004c0-109.035,81.89-199.631,188.42-215.563c-2.643-0.099-5.298-0.21-7.968-0.21
				c-119.547,0-216.468,96.611-216.468,215.773c0,119.166,96.917,215.766,216.468,215.766c2.678,0,5.333-0.095,7.985-0.198
				C143.374,455.64,61.484,365.043,61.484,256.004z"/>
		
			<linearGradient id="gradient-eclipse1" gradientUnits="userSpaceOnUse" x1="957.1343" y1="611.7686" x2="957.1343" y2="922.6466" gradientTransform="matrix(1 0 0 -1 -677 1102.5)">
				<stop  offset="0.3033" style="stop-color:#473788"/>
				<stop  offset="0.8631" style="stop-color:#2C2255"/>
			</linearGradient>
			<path fill="url(#gradient-eclipse1)" d="M280.135,396.974c56.565,0,105.322-33.324,127.775-81.409H152.358
				C174.811,363.649,223.568,396.974,280.135,396.974z"/>
			<path fill="#FFFFFF" d="M455.947,292.445h-38.674H144.188h-29.185H76.443c1.385,7.867,2.958,15.586,5.218,23.119h70.963h256.212
				h42.061h27.393c2.255-7.525,4.076-15.244,5.463-23.119H455.947z"/>
			<path fill="#2C2255" d="M73.757,267.558c0.418,8.498,1.336,16.781,2.69,24.892h38.396h29.104h310.957h28.906
				c1.358-8.11,2.288-16.394,2.711-24.892"/>
		
			<linearGradient id="gradient-eclipse2" gradientUnits="userSpaceOnUse" x1="957.1343" y1="611.7588" x2="957.1343" y2="922.6549" gradientTransform="matrix(1 0 0 -1 -677 1102.5)">
				<stop  offset="0.3033" style="stop-color:#473788"/>
				<stop  offset="0.872" style="stop-color:#2C2255"/>
			</linearGradient>
			<path fill="url(#gradient-eclipse2)" d="M420.594,267.558H139.675c0.693,8.531,2.124,16.848,4.272,24.892h272.379
				C418.47,284.409,419.901,276.089,420.594,267.558z"/>
			<path fill="#FFFFFF" d="M118.854,267.558h20.621h281.646h37h28.108c0.193-3.678,0.303-7.381,0.303-11.116
				c0-4.028-0.148-8.024-0.375-12.012h-28.04h-37H139.471h-22.078H73.757c-0.227,3.979-0.375,7.983-0.375,12.012
				c0,3.735,0.109,7.438,0.305,11.116H118.854z"/>
			<path fill="#2C2255" d="M113.379,219.546H76.447c-1.351,8.115-2.272,16.398-2.69,24.893h43.894h22.021h317.826h29.011
				c-0.423-8.494-1.344-16.777-2.707-24.893"/>
		
			<linearGradient id="gradient-eclipse3" gradientUnits="userSpaceOnUse" x1="957.1323" y1="611.7578" x2="957.1323" y2="922.6661" gradientTransform="matrix(1 0 0 -1 -677 1102.5)">
				<stop  offset="0.3033" style="stop-color:#473788"/>
				<stop  offset="0.872" style="stop-color:#2C2255"/>
			</linearGradient>
			<path fill="url(#gradient-eclipse3)" d="M420.594,244.435c-0.692-8.531-2.127-16.856-4.271-24.893H143.947
				c-2.144,8.028-3.583,16.357-4.276,24.893H420.594z"/>
			<path fill="#FFFFFF" d="M151.536,196.423H81.648c-2.296,7.529-3.779,15.252-5.201,23.128h35.994h30.65h273.087h38.676h27.642
				c-1.427-7.867-3.264-15.59-5.556-23.128"/>
			<path fill="#2C2255" d="M478.561,196.423c-9.424-32.198-26.921-61.11-52.528-86.724c-32.126-32.12-69.615-51.4-112.416-57.887
				c-10.826-1.641-21.977-2.503-33.491-2.503c-57.008,0-105.761,20.134-146.299,60.39c-25.438,25.613-42.818,54.525-52.173,86.724"/>
</svg>
