<svg xmlns="http://www.w3.org/2000/svg" xmlns:xlink="http://www.w3.org/1999/xlink" 
	viewBox="0 0 512 512" fill="none" stroke="#191919" stroke-width="10">
	<path d="M478.99,226.263v59.449
		c0,6.4-4.09,12.07-10.16,14.11l-45.28,15.09c-2.15,6.101-4.61,12.08-7.4,17.91l21.33,42.67c2.86,5.72,1.74,12.63-2.79,17.16
		l-42.03,42.06c-4.52,4.53-11.43,5.641-17.15,2.78l-42.82-21.42c-5.78,2.76-11.7,5.21-17.73,7.34l-15.13,45.43
		c-2.02,6.07-7.71,10.16-14.11,10.16h-59.44c-6.4,0-12.09-4.09-14.11-10.16l-15.13-45.34c-6.08-2.149-12.03-4.6-17.85-7.37
		l-42.7,21.36c-5.72,2.86-12.63,1.75-17.15-2.78l-42.03-42.06c-4.53-4.53-5.65-11.44-2.79-17.16l21.39-42.79
		c-2.78-5.79-5.23-11.71-7.37-17.76l-45.37-15.12c-6.07-2.04-10.16-7.71-10.16-14.11v-59.449c0-6.4,4.09-12.091,10.16-14.11
		l45.22-15.09c2.15-6.13,4.63-12.12,7.44-17.971l-21.31-42.609c-2.86-5.72-1.74-12.63,2.79-17.16l42.03-42.03
		c4.52-4.529,11.43-5.649,17.15-2.79l42.7,21.34c5.83-2.8,11.79-5.26,17.88-7.399l15.1-45.29c2.02-6.061,7.71-10.16,14.11-10.16
		h59.44c6.4,0,12.09,4.1,14.11,10.16l15.07,45.2c6.14,2.149,12.14,4.609,18.02,7.43l42.59-21.28c5.72-2.859,12.63-1.739,17.15,2.79
		l42.03,42.03c4.53,4.53,5.65,11.44,2.79,17.16l-21.36,42.72c2.79,5.83,5.25,11.78,7.4,17.86l45.31,15.09
		C474.9,214.172,478.99,219.862,478.99,226.263z"/>
	<path d="M338.727,255.971
		c0,45.529-37.229,82.687-82.766,82.687c-45.537,0-82.687-37.157-82.687-82.687c0-45.537,37.15-82.773,82.687-82.773
		C301.497,173.197,338.727,210.434,338.727,255.971z"/>
</svg>
