<svg xmlns="http://www.w3.org/2000/svg" viewBox="0 0 32 32">
                    <path fill="#c9c9c9" d="M15.983,0c-8.83,0-15.98,7.16-15.98,15.98c0,8.83,7.15,15.98,15.98,15.98
                        s15.979-7.15,15.979-15.98C31.963,7.16,24.813,0,15.983,0z M22.973,16.29c0.03,0-0.199,0.729-0.26,0.729
                        c-0.72,1.561-2.21,2.15-4.61,2.391c0.78,0.479,1,1.08,1,2.72c0,1.63-0.02,1.851-0.02,2.23c0.01,0.609,0.93,0.909,0.9,1.109
                        c-0.04,0.2-0.771,0.16-1.12,0.05c-0.971-0.34-0.87-1.13-0.87-1.13l-0.04-2.189c0,0,0.07-1.17-0.37-1.17V24.6
                        c0,0.78,0.55,1.021,0.55,1.301c0,0.5-1.01-0.04-1.319-0.351c-0.48-0.47-0.421-1.46-0.41-2.25c0.01-0.76-0.011-2.42-0.011-2.42
                        l-0.319,0.01c0,0,0.13,3.62-0.17,4.28c-0.391,0.86-1.57,1.15-1.57,0.76c0-0.26,0.29-0.18,0.45-0.76
                        c0.14-0.5,0.09-4.189,0.09-4.189s-0.38,0.21-0.38,0.909c0,0.32-0.01,2.13-0.01,2.66c0,0.681-0.98,1.07-1.45,1.07
                        c-0.24,0-0.53-0.01-0.53-0.14c0-0.311,0.89-0.5,0.89-1.15c0-0.561-0.01-2.021-0.01-2.021s-0.45,0.08-1.1,0.08
                        c-1.62,0-2.13-1.02-2.38-1.59c-0.32-0.74-0.73-1.09-1.17-1.37c-0.271-0.17-0.33-0.37-0.021-0.43c1.44-0.27,1.811,1.6,2.771,1.9
                        c0.68,0.21,1.569,0.119,2-0.16c0.06-0.57,0.479-1.061,0.83-1.32c-2.44-0.229-3.891-1.07-4.641-2.41c-0.01,0-0.33-0.67-0.33-0.73
                        c-0.229-0.68-0.34-1.45-0.34-2.32c0-1.55,0.49-2.13,1.15-2.96c-0.5-1.76,0.18-2.96,0.18-2.96s1.06-0.22,3.06,1.19
                        c1.08-0.46,3.971-0.49,5.33-0.1c0.841-0.55,2.38-1.32,3-1.1c0.16,0.26,0.53,1.04,0.221,2.73c0.199,0.38,1.3,1.17,1.3,3.41
                        C23.223,15,23.143,15.7,22.973,16.29z"/>
                    <path fill="none" d="M23.243,14.17c-0.021,0.83-0.101,1.53-0.271,2.12c0.03,0-0.199,0.729-0.26,0.729
                        c-0.72,1.561-2.21,2.15-4.61,2.391c0.78,0.479,1,1.08,1,2.72c0,1.63-0.02,1.851-0.02,2.23c0.01,0.609,0.93,0.909,0.9,1.109
                        c-0.04,0.2-0.771,0.16-1.12,0.05c-0.971-0.34-0.87-1.13-0.87-1.13l-0.04-2.189c0,0,0.07-1.17-0.37-1.17V24.6
                        c0,0.78,0.55,1.021,0.55,1.301c0,0.5-1.01-0.04-1.319-0.351c-0.48-0.47-0.421-1.46-0.41-2.25c0.01-0.76-0.011-2.42-0.011-2.42
                        l-0.319,0.01c0,0,0.13,3.62-0.17,4.28c-0.391,0.86-1.57,1.15-1.57,0.76c0-0.26,0.29-0.18,0.45-0.76
                        c0.14-0.5,0.09-4.189,0.09-4.189s-0.38,0.21-0.38,0.909c0,0.32-0.01,2.13-0.01,2.66c0,0.681-0.98,1.07-1.45,1.07
                        c-0.24,0-0.53-0.01-0.53-0.14c0-0.311,0.89-0.5,0.89-1.15c0-0.561-0.01-2.021-0.01-2.021s-0.45,0.08-1.1,0.08
                        c-1.62,0-2.13-1.02-2.38-1.59c-0.32-0.74-0.73-1.09-1.17-1.37c-0.271-0.17-0.33-0.37-0.021-0.43c1.44-0.27,1.811,1.6,2.771,1.9
                        c0.68,0.21,1.569,0.119,2-0.16c0.06-0.57,0.479-1.061,0.83-1.32c-2.44-0.229-3.891-1.07-4.641-2.41c-0.01,0-0.33-0.67-0.33-0.73
                        c-0.229-0.68-0.34-1.45-0.34-2.32c0-1.55,0.49-2.13,1.15-2.96c-0.5-1.76,0.18-2.96,0.18-2.96s1.06-0.22,3.06,1.19
                        c1.08-0.46,3.971-0.49,5.33-0.1c0.841-0.55,2.38-1.32,3-1.1c0.16,0.26,0.53,1.04,0.221,2.73
                        C22.143,11.14,23.243,11.93,23.243,14.17z"/>
</svg>