<svg xmlns="http://www.w3.org/2000/svg" xmlns:xlink="http://www.w3.org/1999/xlink" viewBox="0 0 512 512">
	<radialGradient id="gradient_html" cx="148" cy="143.9971" r="252.0007" gradientUnits="userSpaceOnUse">
		<stop  offset="0" style="stop-color:#E28027"/>
		<stop  offset="1" style="stop-color:#E34F26"/>
	</radialGradient>
	
	<polygon fill="url(#gradient_html)" points="450.31,35.402 414.98,431.782 255.57,476.592 97.02,431.782 61.69,35.402"/>
	<polygon fill="#EBEBEB" points="377.93,116.402 377.07,129.332 374.48,154.322 373.62,164.662 187.49,164.662 191.8,214.643 
		369.31,214.643 367.59,227.563 356.39,355.962 355.53,364.572 256.43,391.912 255.57,392.152 155.61,364.572 149.58,287.882 
		197.83,287.882 201.28,326.662 255.57,341.313 256.43,341.313 256.43,341.082 309.86,326.662 315.89,263.752 146.99,263.752 
		134.93,129.332 134.07,116.402"/>
</svg>
