<svg xmlns="http://www.w3.org/2000/svg" xmlns:xlink="http://www.w3.org/1999/xlink" viewBox="0 0 512 512">
	<path fill-rule="evenodd" clip-rule="evenodd" fill="#038BC8" d="M152.249,466.871c16.034,6.729,50.943,10.835,69.069,12.303
			c25.472,2.092,53.441,1.593,78.905-0.203c32.966-2.342,72.067-6.104,101.075-20.843c6.893-3.513,19.328-11.912,20.522-19.983
			c-2.076,0.937-3.864,2.825-5.808,4.137c-51.162,35.206-168.084,31.85-228.441,27.557L152.249,466.871L152.249,466.871z"/>
		<path fill-rule="evenodd" clip-rule="evenodd" fill="#038BC8" d="M395.288,415.428c4.652,7.51,0.055,10.68-6.3,13.661
			c-28.25,13.224-123.791,15.706-153.626,16.144c-30.421,0.438-61.068-0.766-90.451-5.917c-4.762-0.813-25.698-4.153-26.666-9.711
			c-0.648-3.497,3.06-6.12,4.964-7.307c6.76-4.216,19.149-7.104,27.666-8.649c2.459-0.438,8.415-1.093,10.257-1.843
			c-14.239-2.092-59.335,5.527-69.21,19.563c-6.214,8.821,4.208,12.912,11.147,15.191c25.995,8.478,80.1,10.194,108.639,10.616
			c42.653,0.578,145.297,0.156,182.908-25.698c2.202-1.483,6.511-4.637,6.956-7.697C402.11,419.987,397.598,416.412,395.288,415.428
			L395.288,415.428z"/>
		<path fill-rule="evenodd" clip-rule="evenodd" fill="#038BC8" d="M362.291,280.209c12.537-3.919,26.791-1.312,34.73,5.745
			c8.579,7.65,8.681,22.154,2.49,33.395c-8.282,14.988-25.659,28.353-40.054,37.393c-2.459,1.561-4.848,2.731-6.987,4.309
			c9.282-0.983,31.288-10.929,39.664-16.081c10.679-6.604,22.607-16.236,27.533-28.727c7.025-17.721-3.193-31.256-14.083-37.657
			c-6.253-3.653-13.809-5.854-22.607-5.48C376.24,273.37,365.327,276.056,362.291,280.209L362.291,280.209z"/>
		<path fill-rule="evenodd" clip-rule="evenodd" fill="#038BC8" d="M326.343,399.441c-7.962-3.014-13.958-6.511-21.084-10.742
			c-4.129-2.482-2.537-2.279-7.83-0.968c-21.569,5.324-56.548,5.387-79.202,4.699c-5.823-0.172-22.208-0.687-25.519-6.167
			c-2.1-3.466,0.757-5.979,1.881-7.946c-14.848,2.981-29.96,15.315-9.321,25.589c23.231,11.521,72.06,11.646,97.477,7.135
			C289.989,409.745,322.877,402.251,326.343,399.441L326.343,399.441z"/>
		<path fill-rule="evenodd" clip-rule="evenodd" fill="#038BC8" d="M333.212,350.995c-6.136-1.545-11.647-5.37-15.41-8.665
			c-3.286-2.825-2.162-2.123-9.219-0.937c-25.394,4.231-100.997,11.616-122.644,2.701c-2.802-1.155-6.042-2.904-6.245-6.214
			c-0.227-3.919,3.099-6.026,4.496-8.165c-17.408,2.154-34.113,18.938-10.804,26.932c26.284,9.008,82.973,9.32,110.927,5.792
			C293.525,361.253,326.171,354.898,333.212,350.995L333.212,350.995z"/>
		<path fill-rule="evenodd" clip-rule="evenodd" fill="#038BC8" d="M350.698,293.947c-3.31,0.141-7.736,1.171-11.077,1.702
			c-3.88,0.577-7.564,1.14-11.437,1.654c-23.278,3.264-49.07,5.887-72.364,7.26c-18.188,1.063-86.782,3.326-97.016-6.229
			c-0.757-4.294,4.161-6.979,7.174-8.634c11.764-6.308,24.27-8.431,35.854-12.053c-16.003-1.499-56.251,10.007-70.802,19.094
			c-15.738,9.82,10.491,13.724,20.304,15.098c57.423,7.993,111.122,3.699,167.904-4.356c9.258-1.312,11.241-0.78,17.548-4.793
			C341.136,299.911,346.842,296.992,350.698,293.947L350.698,293.947z"/>
		<path fill-rule="evenodd" clip-rule="evenodd" fill="#ED2124" d="M272.207,292.137c4.536-1.562,17.916-12.521,21.522-16.206
			c4.723-4.902,12.771-13.988,13.466-24.48c0.617-9.539-5.956-21.951-9.969-28.024c-12.693-19.234-22.833-30.257-5.651-51.583
			c5.745-7.104,11.975-12.678,19.25-18.688c8.72-7.213,22.989-17.049,33.208-23.466l11.639-7.479
			c-6.159,0.813-22.482,7.338-28.922,9.742c-8.649,3.264-18.618,8.213-26.182,12.568c-25.925,14.988-51.428,38.453-40.999,70.881
			c7.057,21.951,27.619,35.097,26.135,51.536C284.806,277.023,275.126,287.094,272.207,292.137L272.207,292.137z"/>
		<path fill-rule="evenodd" clip-rule="evenodd" fill="#ED2124" d="M254.479,274.76l-9.485-13.786
			c-3.115-4.527-6.159-9.555-9.063-14.582c-5.316-9.258-11.702-20.998-14.629-32.661c-5.347-21.373,7.845-34.612,19.5-48.617
			c1.756-2.123,3.81-4.121,5.722-6.12c12.186-12.849,28.891-28.228,41.888-40.873c13.216-12.928,21.178-27.229,22.724-48.149
			c0.828-10.913-1.28-34.3-8.993-38.516c2.295,16.378,2.826,27.524-3.81,43.996c-7.689,19.125-20.202,30.569-34.737,41.872
			c-11.866,9.259-31.295,25.917-41.529,35.565c-6.635,6.292-17.845,17.533-22.482,28.509c-6.862,16.221-0.055,26.854,7.291,38.188
			c3.505,5.402,7.064,10.023,10.804,14.863c4.364,5.651,8.236,9.539,11.733,13.974c3.677,4.684,8.228,8.992,12.248,13.442
			C244.159,264.627,252.012,273.026,254.479,274.76L254.479,274.76z"/>
</svg>
