<svg xmlns="http://www.w3.org/2000/svg" xmlns:xlink="http://www.w3.org/1999/xlink" viewBox="0 0 512 512">
	<path fill="#0FAA51" d="M357.579,208.105C332.859,99.048,281.327,70.02,268.185,49.487c-7.15-11.171-14.366-28.136-14.366-28.136
		c-0.704,9.63-1.971,15.796-10.214,23.145c-16.535,14.737-86.761,71.976-92.673,195.89c-5.51,115.532,84.939,186.784,96.91,194.145
		c9.185,4.511,20.374,0.087,25.852-4.048C317.26,400.56,376.863,320.789,357.579,208.105"/>
	<path fill="#B8C4C2" d="M257.563,372.998c-2.274,28.604-3.904,45.251-9.693,61.569c0,0,3.796,27.214,6.435,56.059l9.424,0.022
		c3.477-32.349,10.281-60.392,10.281-60.392C261.841,424.249,258.026,398.088,257.563,372.998"/>
	<path fill="#12924F" d="M274.031,430.257h-0.023c-12.329-5.695-15.896-32.388-16.446-57.259
		c2.656-33.849,4.046-77.655,2.656-123.28c-0.645-21.567,0.313-199.812-5.312-225.903c2.273,5.099,7.78,17.093,13.284,25.663
		c13.143,20.538,64.681,49.575,89.383,158.636C376.821,320.502,317.575,400.145,274.031,430.257"/>
</svg>
