<?xml version="1.0" encoding="utf-8"?>
<!-- Generator: Adobe Illustrator 21.0.2, SVG Export Plug-In . SVG Version: 6.00 Build 0)  -->
<svg version="1.1" id="Layer_1" xmlns="http://www.w3.org/2000/svg" xmlns:xlink="http://www.w3.org/1999/xlink" x="0px" y="0px"
	 viewBox="0 0 512 512" style="enable-background:new 0 0 512 512;" xml:space="preserve">
<style type="text/css">
	.st0{fill:url(#SVGID_1_);}
	.st1{fill:url(#SVGID_2_);}
	.st2{fill:url(#SVGID_3_);}
	.st3{fill:url(#SVGID_4_);}
	.st4{fill:url(#SVGID_5_);}
</style>
<linearGradient id="SVGID_1_" gradientUnits="userSpaceOnUse" x1="-47.1393" y1="140.7257" x2="-46.0872" y2="140.7257" gradientTransform="matrix(256 0 0 -96 12189 13833)">
	<stop  offset="0" style="stop-color:#4F4F4F"/>
	<stop  offset="1" style="stop-color:#000000"/>
</linearGradient>
<path class="st0" d="M121.3,306.5v33.7c0,5.7,122.4,15.2,202.2,33.7l0,0c38.5-8.9,67.1-20,67.1-33.7l0,0v-33.7
	c0-13.7-28.6-24.7-67.1-33.7l0,0C243.8,291.3,121.3,300.8,121.3,306.5L121.3,306.5z"/>
<linearGradient id="SVGID_2_" gradientUnits="userSpaceOnUse" x1="-47.1393" y1="140.7951" x2="-46.0872" y2="140.7951" gradientTransform="matrix(256 0 0 -96 12189 13705)">
	<stop  offset="0" style="stop-color:#4F4F4F"/>
	<stop  offset="1" style="stop-color:#000000"/>
</linearGradient>
<path class="st1" d="M121.3,171.8v33.7c0,5.7,122.4,15.2,202.2,33.7l0,0c38.5-8.9,67.1-20,67.1-33.7l0,0v-33.7
	c0-13.7-28.6-24.7-67.1-33.7l0,0C243.8,156.7,121.3,166.2,121.3,171.8L121.3,171.8z"/>
<linearGradient id="SVGID_3_" gradientUnits="userSpaceOnUse" x1="-47.1393" y1="141.0146" x2="-46.0872" y2="141.0146" gradientTransform="matrix(256 0 0 -160 12189 22953)">
	<stop  offset="0" style="stop-color:#C40000"/>
	<stop  offset="1" style="stop-color:#FF0000"/>
</linearGradient>
<path class="st2" d="M121.3,373.8v101c0-8.4,269.3-25.3,269.3-67.3l0,0v-101C390.7,348.6,121.3,365.4,121.3,373.8L121.3,373.8z"/>
<linearGradient id="SVGID_4_" gradientUnits="userSpaceOnUse" x1="-47.1393" y1="141.0562" x2="-46.0872" y2="141.0562" gradientTransform="matrix(256 0 0 -160 12189 22825)">
	<stop  offset="0" style="stop-color:#C40000"/>
	<stop  offset="1" style="stop-color:#FF0000"/>
</linearGradient>
<path class="st3" d="M121.3,239.2v101c0-8.4,269.3-25.3,269.3-67.3l0,0v-101C390.7,213.9,121.3,230.8,121.3,239.2L121.3,239.2z"/>
<linearGradient id="SVGID_5_" gradientUnits="userSpaceOnUse" x1="-47.1393" y1="141.0979" x2="-46.0872" y2="141.0979" gradientTransform="matrix(256 0 0 -160 12189 22697)">
	<stop  offset="0" style="stop-color:#C40000"/>
	<stop  offset="1" style="stop-color:#FF0000"/>
</linearGradient>
<path class="st4" d="M121.3,104.5v101c0-8.4,269.3-25.3,269.3-67.3l0,0v-101C390.7,79.3,121.3,96.1,121.3,104.5L121.3,104.5z"/>
</svg>
