<svg xmlns="http://www.w3.org/2000/svg" xmlns:xlink="http://www.w3.org/1999/xlink" viewBox="0 0 512 512">
    <path d="M435.713 391.553C435.707 391.548 435.701 391.541 435.701 391.537C432.382 387.79 430.8 380.844 429.1 373.443C427.404 366.048 425.507 358.074 419.435 352.905C419.423 352.894 419.407 352.884 419.397 352.872C418.193 351.822 416.958 350.936 415.716 350.197C414.469 349.459 413.205 348.857 411.943 348.382C420.382 323.353 417.073 298.429 408.551 275.911C398.099 248.267 379.847 224.186 365.906 207.713C350.301 188.027 335.041 169.344 335.342 141.745C335.806 99.624 339.974 21.515 265.852 21.411C262.838 21.405 259.693 21.531 256.417 21.794C173.587 28.461 195.558 115.973 194.327 145.273C192.812 166.703 188.469 183.592 173.729 204.541C156.418 225.128 132.035 258.454 120.489 293.147C115.041 309.516 112.448 326.204 114.839 342C114.089 342.672 113.379 343.379 112.695 344.101C107.614 349.533 103.857 356.106 99.672 360.531C95.762 364.436 90.193 365.92 84.068 368.112C77.942 370.311 71.22 373.549 67.14 381.381C67.14 381.381 67.14 381.388 67.134 381.388C67.129 381.399 67.123 381.414 67.113 381.424C65.193 385.007 64.57 388.874 64.57 392.796C64.57 396.422 65.106 400.099 65.648 403.636C66.775 410.998 67.918 417.96 66.403 422.675C61.557 435.928 60.933 445.09 64.347 451.741C67.77 458.402 74.799 461.34 82.746 463.003C98.64 466.316 120.163 465.496 137.123 474.488L138.583 471.737L137.139 474.493C155.298 483.989 173.708 487.358 188.393 484.006C199.047 481.577 207.689 475.233 212.131 465.475C223.616 465.42 236.224 460.552 256.418 459.443C270.118 458.338 287.233 464.31 306.918 463.216C307.432 465.35 308.176 467.405 309.193 469.359C309.204 469.375 309.215 469.396 309.226 469.414C316.856 484.674 331.033 491.652 346.145 490.461C361.273 489.268 377.358 480.348 390.366 464.874L387.982 462.872L390.383 464.851C402.777 449.821 423.347 443.591 436.994 435.366C443.814 431.254 449.344 426.101 449.776 418.619C450.202 411.139 445.81 402.76 435.713 391.553Z" fill="#202020"/>
    <path d="M443.551 418.26C443.288 422.876 439.946 426.306 433.771 430.026C421.431 437.469 399.559 443.946 385.596 460.863C373.464 475.297 358.675 483.222 345.653 484.25C332.631 485.278 321.396 479.875 314.766 466.578L314.755 466.552L314.739 466.518C310.625 458.697 312.337 446.364 315.799 433.346C319.261 420.335 324.239 406.967 324.906 396.111V396.077C325.606 382.164 326.388 370.01 328.723 360.63C331.064 351.25 334.745 344.905 341.265 341.334C341.572 341.17 341.871 341.011 342.173 340.863C342.912 352.912 348.879 365.209 359.423 367.865C370.965 370.907 387.597 361.008 394.62 352.929C396.025 352.873 397.392 352.802 398.722 352.77C404.887 352.623 410.05 352.977 415.333 357.593L415.349 357.61L415.366 357.622C419.424 361.062 421.355 367.56 423.029 374.834C424.703 382.114 426.037 390.039 431.059 395.688L431.064 395.694L431.069 395.706C440.718 406.408 443.818 413.639 443.551 418.26Z" fill="white"/>
    <path d="M209.046 452.379L209.041 452.411V452.45C207.925 467.076 199.677 475.038 187.01 477.932C174.353 480.826 157.184 477.944 140.043 468.978C140.038 468.978 140.032 468.973 140.026 468.973C121.058 458.925 98.496 459.926 84.018 456.901C76.782 455.392 72.057 453.117 69.891 448.895C67.725 444.666 67.676 437.299 72.282 424.736L72.303 424.68L72.32 424.626C74.601 417.598 72.911 409.906 71.806 402.688C70.701 395.474 70.16 388.906 72.626 384.333L72.648 384.289C75.804 378.206 80.431 376.03 86.174 373.974C91.922 371.911 98.731 370.293 104.108 364.9L104.141 364.873L104.169 364.846C109.14 359.601 112.876 353.021 117.246 348.355C120.933 344.417 124.624 341.808 130.187 341.77C130.252 341.777 130.312 341.777 130.378 341.77C131.351 341.777 132.385 341.858 133.479 342.028C140.863 343.144 147.3 348.307 153.502 356.718L171.41 389.355L171.415 389.371L171.426 389.383C176.19 399.332 186.254 410.277 194.781 421.44C203.309 432.597 209.905 443.803 209.046 452.379Z" fill="white"/>
    <path d="M298.352 148.134C296.914 145.317 293.977 142.637 288.977 140.585L288.966 140.58L288.95 140.574C278.553 136.123 274.04 135.805 268.237 132.031C258.792 125.96 250.987 123.833 244.5 123.859C241.104 123.871 238.068 124.471 235.35 125.413C227.447 128.132 222.201 133.804 218.914 136.915L218.909 136.921C218.909 136.927 218.903 136.927 218.903 136.932C218.258 137.545 217.426 138.103 215.413 139.579C213.384 141.061 210.343 143.293 205.967 146.574C202.079 149.49 200.815 153.286 202.161 157.732C203.501 162.179 207.788 167.309 215.632 171.746L215.642 171.756L215.659 171.761C220.527 174.622 223.852 178.479 227.67 181.546C229.579 183.078 231.586 184.445 234.004 185.479C236.421 186.514 239.243 187.213 242.777 187.421C251.069 187.902 257.173 185.413 262.56 182.329C267.958 179.249 272.531 175.48 277.776 173.78L277.787 173.774L277.799 173.768C288.551 170.411 296.22 163.645 298.621 157.218C299.823 154.003 299.785 150.95 298.352 148.134Z" fill="white"/>
    <path d="M271.07 164.006C262.515 168.464 252.523 173.872 241.89 173.872C231.263 173.872 222.867 168.961 216.829 164.175C213.81 161.786 211.36 159.406 209.511 157.678C206.304 155.146 206.688 151.595 208.006 151.699C210.215 151.975 210.549 154.884 211.94 156.184C213.822 157.945 216.179 160.226 219.034 162.491C224.744 167.013 232.358 171.417 241.891 171.417C251.408 171.417 262.517 165.83 269.298 162.026C273.14 159.871 278.029 156.007 282.019 153.079C285.071 150.839 284.96 148.141 287.48 148.434C290.001 148.727 288.136 151.419 284.606 154.5C281.077 157.582 275.555 161.668 271.07 164.006Z" fill="#202020"/>
    <path d="M402.064 346.556C400.877 346.512 399.707 346.518 398.569 346.545C398.465 346.55 398.361 346.55 398.252 346.55C401.189 337.274 394.692 330.432 377.375 322.599C359.419 314.702 345.11 315.484 342.693 331.509C342.54 332.346 342.414 333.204 342.321 334.069C340.976 334.54 339.63 335.13 338.274 335.869C329.845 340.485 325.24 348.853 322.68 359.126C320.126 369.387 319.388 381.785 318.688 395.728C318.688 395.733 318.688 395.733 318.688 395.739C318.256 402.747 315.368 412.229 312.447 422.272C283.032 443.257 242.208 452.347 207.542 428.687C205.195 424.973 202.499 421.292 199.726 417.661C197.954 415.343 196.132 413.039 194.328 410.765C197.883 410.771 200.908 410.184 203.353 409.08C206.394 407.696 208.526 405.486 209.588 402.642C211.699 396.959 209.577 388.942 202.811 379.78C196.045 370.624 184.587 360.293 167.752 349.966C167.752 349.966 167.752 349.966 167.752 349.961C155.38 342.266 148.466 332.835 145.229 322.597C141.985 312.353 142.439 301.277 144.939 290.343C149.731 269.358 162.037 248.946 169.891 236.136C172.003 234.582 170.646 239.024 161.938 255.192C154.139 269.97 139.551 304.078 159.521 330.704C160.057 311.758 164.581 292.433 172.178 274.356C183.242 249.279 206.384 205.781 208.221 171.115C209.173 171.804 212.427 174.003 213.877 174.829C213.882 174.835 213.882 174.835 213.888 174.835C218.133 177.335 221.321 180.987 225.451 184.308C229.591 187.633 234.76 190.504 242.571 190.958C243.32 191.002 244.053 191.023 244.769 191.023C252.82 191.023 259.099 188.398 264.328 185.407C270.011 182.158 274.55 178.559 278.855 177.159C278.86 177.153 278.866 177.153 278.871 177.153C287.967 174.309 295.192 169.277 299.305 163.414C306.372 191.265 322.802 231.492 333.364 251.123C338.981 261.537 350.15 283.666 354.974 310.329C358.032 310.236 361.401 310.68 365.005 311.603C377.623 278.89 354.307 243.661 343.641 233.849C339.336 229.67 339.129 227.799 341.267 227.887C352.829 238.121 368.017 258.691 373.542 281.915C376.063 292.503 376.599 303.639 373.897 314.628C375.215 315.175 376.56 315.771 377.922 316.417C398.176 326.274 405.663 334.851 402.064 346.556Z" fill="white"/>
    <path d="M299.304 116.05C299.347 121.569 298.396 126.267 296.302 131.064C295.11 133.798 293.737 136.095 292.091 138.087C291.532 137.818 290.954 137.562 290.351 137.315C288.268 136.423 286.424 135.691 284.773 135.067C283.121 134.444 281.832 134.017 280.502 133.558C281.465 132.394 283.362 131.021 284.069 129.297C285.141 126.699 285.666 124.162 285.764 121.137C285.764 121.017 285.803 120.912 285.803 120.77C285.863 117.872 285.48 115.395 284.633 112.856C283.747 110.193 282.62 108.279 280.99 106.687C279.354 105.094 277.725 104.373 275.767 104.307C275.674 104.302 275.586 104.302 275.494 104.302C273.656 104.307 272.059 104.942 270.406 106.32C268.673 107.769 267.387 109.625 266.316 112.206C265.249 114.787 264.724 117.348 264.619 120.388C264.603 120.508 264.603 120.613 264.603 120.733C264.564 122.407 264.674 123.938 264.931 125.426C261.168 123.55 256.354 122.183 253.028 121.389C252.837 119.951 252.727 118.468 252.695 116.915V116.493C252.635 110.991 253.537 106.271 255.654 101.479C257.771 96.683 260.39 93.237 264.077 90.431C267.768 87.631 271.395 86.345 275.688 86.301H275.891C280.091 86.301 283.685 87.537 287.377 90.212C291.123 92.935 293.825 96.337 296.002 101.097C298.135 105.735 299.163 110.269 299.268 115.646C299.265 115.787 299.265 115.907 299.304 116.05Z" fill="white"/>
    <path d="M235.814 121.547C235.262 121.705 234.726 121.875 234.195 122.055C231.187 123.094 228.798 124.241 226.49 125.767C226.714 124.17 226.747 122.552 226.572 120.741C226.555 120.642 226.555 120.561 226.555 120.463C226.314 118.062 225.806 116.049 224.958 114.015C224.056 111.898 223.044 110.405 221.715 109.255C220.511 108.216 219.374 107.735 218.115 107.746C217.99 107.746 217.858 107.752 217.727 107.763C216.316 107.883 215.145 108.573 214.036 109.923C212.931 111.269 212.203 112.943 211.678 115.163C211.153 117.378 211.016 119.555 211.235 122.054C211.235 122.153 211.257 122.236 211.257 122.333C211.498 124.756 211.985 126.769 212.849 128.804C213.735 130.899 214.763 132.392 216.092 133.54C216.316 133.73 216.535 133.906 216.754 134.06C215.376 135.126 214.45 135.883 213.312 136.714C212.584 137.245 211.721 137.88 210.714 138.623C208.52 136.566 206.808 133.984 205.31 130.578C203.538 126.552 202.592 122.521 202.307 117.763V117.725C202.044 112.965 202.51 108.874 203.817 104.642C205.13 100.409 206.88 97.345 209.423 94.829C211.961 92.308 214.521 91.039 217.606 90.88C217.847 90.869 218.082 90.863 218.317 90.863C221.111 90.869 223.606 91.799 226.188 93.861C228.988 96.097 231.105 98.958 232.877 102.989C234.655 107.02 235.601 111.051 235.863 115.809V115.847C235.989 117.844 235.973 119.725 235.814 121.547Z" fill="white"/>
    <path d="M249.847 132.929C250.201 134.064 252.031 133.875 253.089 134.42C254.017 134.899 254.763 135.945 255.806 135.976C256.802 136.005 258.351 135.631 258.481 134.644C258.652 133.338 256.747 132.51 255.521 132.032C253.943 131.417 251.922 131.104 250.442 131.928C250.102 132.115 249.731 132.558 249.847 132.929Z" fill="#202020"/>
    <path d="M239.037 132.929C238.683 134.064 236.853 133.875 235.796 134.42C234.868 134.899 234.122 135.945 233.079 135.976C232.083 136.005 230.534 135.631 230.404 134.644C230.233 133.338 232.138 132.51 233.364 132.032C234.942 131.417 236.963 131.104 238.443 131.928C238.782 132.115 239.152 132.558 239.037 132.929Z" fill="#202020"/>
</svg>
