<svg xmlns="http://www.w3.org/2000/svg" viewBox="0 0 32 32">
                    <path class="main" d="M16.013,0c-4.42,0-8.43,1.79-11.319,4.69c-2.9,2.9-4.69,6.9-4.69,11.32s1.79,8.42,4.69,11.32
                        c2.89,2.9,6.899,4.689,11.319,4.689s8.42-1.789,11.32-4.689s4.69-6.9,4.69-11.32C32.023,7.17,24.853,0,16.013,0z M24.163,11.83
                        c0,0.18,0.01,0.36,0.01,0.54c0,5.56-4.229,11.97-11.96,11.97c-2.38,0-4.59-0.7-6.45-1.89c0.33,0.04,0.67,0.05,1.011,0.05
                        c1.96,0,3.77-0.67,5.21-1.79c-1.841-0.04-3.391-1.25-3.92-2.92c0.26,0.04,0.52,0.07,0.789,0.07c0.381,0,0.761-0.051,1.11-0.15
                        c-1.93-0.38-3.38-2.08-3.38-4.12v-0.05c0.57,0.31,1.22,0.5,1.91,0.52c-1.13-0.75-1.87-2.04-1.87-3.49c0-0.78,0.21-1.5,0.57-2.12
                        c2.069,2.54,5.17,4.22,8.659,4.39c-0.069-0.3-0.1-0.63-0.1-0.96c0-2.28,1.82-4.14,4.09-4.2h0.11c1.21,0,2.3,0.51,3.07,1.33
                        c0.96-0.19,1.859-0.54,2.67-1.02c-0.32,0.98-0.98,1.8-1.851,2.32c0.851-0.1,1.66-0.32,2.41-0.66
                        C25.693,10.49,24.983,11.24,24.163,11.83z"/>
                    <path class="secondly" d="M19.844,7.682c-2.271,0.058-4.095,1.917-4.095,4.203c0,0.329,0.036,0.65,0.107,0.959
                        c-3.494-0.175-6.592-1.85-8.666-4.394c-0.361,0.621-0.569,1.344-0.569,2.115c0,1.458,0.742,2.745,1.871,3.499
                        c-0.688-0.022-1.338-0.212-1.906-0.527c0,0.018,0,0.037,0,0.054c0,2.037,1.45,3.735,3.375,4.121
                        c-0.353,0.097-0.726,0.147-1.108,0.147c-0.272,0-0.534-0.025-0.792-0.074c0.536,1.67,2.087,2.887,3.927,2.92
                        c-1.439,1.128-3.25,1.8-5.219,1.8c-0.34,0-0.675-0.019-1.005-0.058c1.861,1.193,4.07,1.889,6.444,1.889
                        c7.734,0,11.964-6.406,11.964-11.963c0-0.183-0.004-0.365-0.012-0.546c0.821-0.591,1.534-1.333,2.097-2.176
                        c-0.752,0.335-1.563,0.561-2.413,0.663c0.868-0.521,1.534-1.344,1.849-2.327c-0.813,0.482-1.712,0.833-2.67,1.021
                        c-0.768-0.817-1.86-1.327-3.069-1.327C19.916,7.682,19.88,7.681,19.844,7.682L19.844,7.682z"/>
                </svg>