<svg xmlns="http://www.w3.org/2000/svg" xmlns:xlink="http://www.w3.org/1999/xlink" viewBox="0 0 512 512">
	<path fill="#0065A9" d="M458.724,85.053L368.88,41.794c-10.399-5.007-22.828-2.895-30.99,5.268L43.771,315.229
			c-7.911,7.214-7.902,19.668,0.02,26.87l24.024,21.84c6.477,5.889,16.229,6.321,23.203,1.032L445.205,96.276
			c11.882-9.016,28.95-0.54,28.95,14.375v-1.043C474.155,99.139,468.157,89.595,458.724,85.053z"/>
		<path fill="#007ACC" d="M458.724,426.947l-89.844,43.259c-10.399,5.007-22.828,2.894-30.99-5.267L43.771,196.771
			c-7.911-7.213-7.902-19.668,0.02-26.87l24.024-21.84c6.477-5.888,16.229-6.321,23.203-1.031l354.187,268.693
			c11.882,9.015,28.95,0.54,28.95-14.375v1.043C474.155,412.86,468.157,422.404,458.724,426.947z"/>
		<path fill="#1F9CF0" d="M368.885,470.213c-10.402,5.003-22.831,2.889-30.994-5.273c10.057,10.056,27.253,2.934,27.253-11.289
			V58.349c0-14.223-17.196-21.345-27.253-11.288c8.163-8.162,20.592-10.277,30.994-5.274l89.829,43.199
			c9.439,4.54,15.442,14.087,15.442,24.561v292.909c0,10.474-6.002,20.021-15.442,24.56L368.885,470.213z"/>
</svg>
